PathFileType	4	(X/Y/Z)	C:\Users\dbl\Desktop\20210112\20210112\bx_n_0_501-Unnamed.trc
DataRate	CameraRate	NumFrames	NumMarkers	Units	OrigDataRate	OrigDataStartFrame	OrigNumFrames
50.00	50.00	       12	0	mm	50.00	128	       339
Frame#	Time	
		

128	2.540				-759.52203	278.96619	739.68732										-757.20422	-22.31883	207.50426	-700.52942	22.80612	526.58521				-679.55255	155.96399	160.42000							-548.02802	212.02037	163.63184				-750.01965	142.04778	573.02039							-796.76056	183.13933	183.88452	-762.95837	226.36780	204.32649	-590.10120	182.19049	172.82294	-882.61945	296.00604	144.51439	-770.93732	250.09850	572.18372	-639.88104	273.34494	160.08348	-601.78589	274.11807	159.61330	-528.07733	303.82642	146.19939										-740.38904	78.71613	576.73706	-794.14038	32.66431	175.78470				-875.79321	-78.65291	140.91418													-723.28265	144.99165	221.15994													-517.99066	-73.04592	143.03880	
129	2.560				-759.81512	279.39035	739.73566										-757.33362	-21.97359	207.52095	-700.80420	22.58641	526.82465				-679.45813	156.18044	160.20120							-548.17828	211.98074	163.45343				-750.63873	142.39905	573.12646							-796.80206	183.10065	183.81383	-763.05902	226.48346	204.34753	-590.06152	182.12367	172.57527	-882.66919	296.18298	144.57330	-771.15405	249.86502	572.21844	-640.17053	273.35843	159.75250	-601.71082	273.97598	159.73526	-528.14905	303.87628	146.15105										-740.54590	78.62202	576.69617	-794.13159	32.59766	175.71570				-875.78070	-78.64841	140.93260													-723.46832	145.20290	221.03479													-517.91980	-73.01032	143.17534	
130	2.580				-760.29016	279.38501	739.60132										-757.33362	-21.97359	207.52095	-700.80957	22.65456	526.66779				-679.55255	155.96399	160.42000							-548.09998	212.27274	163.44374				-751.49530	142.06293	573.05951							-796.90704	183.24873	184.00166	-763.12341	226.29082	204.25368	-590.16693	182.32101	172.63695	-882.58575	296.13757	144.56622	-771.43420	250.13101	572.55914	-640.08679	273.26620	159.83809	-601.73236	274.18994	159.50821	-528.02557	303.88501	146.22704										-740.90582	78.90093	576.71655	-794.13483	32.54493	175.73915										-876.12219	-78.89765	141.41621							-723.19543	145.31374	221.14653													-517.98566	-73.08208	143.18445	
131	2.600				-760.79059	279.26999	739.27838										-757.47559	-21.92715	207.38007	-701.21490	22.81935	526.87860				-679.69440	156.17131	160.27579							-548.18475	212.14345	163.43765				-751.81134	142.27342	573.03772							-796.80206	183.10065	183.81383	-763.22858	226.36182	204.28491	-590.24115	182.30609	172.72829	-882.70941	296.17542	144.57637	-771.64215	249.92966	572.27539	-640.17053	273.35843	159.75250	-601.51086	274.14243	159.60596	-528.21484	303.82672	146.14497										-741.23712	78.75581	576.69641	-794.09967	32.68519	175.65205										-876.14905	-78.79788	141.54057							-723.34668	145.32727	221.17250													-517.94177	-72.92817	143.09164	
132	2.620				-761.12329	279.27466	739.30750										-757.66064	-22.07706	207.48291	-701.58295	22.71859	526.65436				-679.55255	155.96399	160.42000							-548.22882	212.13057	163.40622				-752.01587	142.06865	573.06635							-796.74066	183.37698	183.72336	-763.20477	226.24585	204.12024	-590.14777	182.40150	172.81154	-882.51190	296.06451	144.64046	-772.24146	250.69296	572.65656	-640.17053	273.35843	159.75250	-601.82831	274.12253	159.50067	-528.21484	303.82672	146.14497										-741.92969	79.29558	576.72455	-794.09424	32.60839	175.48158										-875.76721	-78.54784	141.02655							-723.46832	145.20290	221.03479													-517.91980	-73.01032	143.17534	
133	2.640				-761.32416	279.41006	739.41162										-757.47559	-21.92715	207.38007	-701.93231	22.51522	526.52008				-679.55255	155.96399	160.42000							-548.27417	211.92783	163.62468				-752.07446	142.08723	573.25061							-796.88116	183.30013	183.77264	-763.34357	226.56503	204.07159	-589.54034	182.19664	173.34157	-882.72894	296.02994	144.58238	-772.59290	250.54510	572.33380	-640.17053	273.35843	159.75250	-601.65210	274.11206	159.65501	-527.87646	303.88986	146.16646										-742.08276	79.23048	576.77399	-794.06110	32.60342	175.34982				-876.14905	-78.79788	141.54057													-723.60681	145.24115	220.87184													-517.99530	-72.92086	143.19157	
134	2.660				-761.70160	279.63455	739.51862										-757.47559	-21.92715	207.38007	-702.11224	22.35684	526.61676				-679.70038	156.04497	160.57922							-548.32080	212.02664	163.58516				-752.28564	142.29202	573.01373							-796.96771	183.51801	183.63095	-763.44629	226.40089	203.92789	-589.92273	182.12878	172.95769	-882.84644	296.12708	144.49733	-772.82007	250.73796	572.16553	-640.18671	273.44904	159.63753	-601.80469	274.18188	159.56776	-528.07733	303.82642	146.19939										-742.26556	79.32198	576.61591	-794.06409	32.64419	175.16467				-875.89008	-78.67332	140.88654													-723.34668	145.32727	221.17250													-517.94177	-72.92817	143.09164	
135	2.680				-761.83099	279.54868	739.47980										-757.52148	-22.11804	207.33202	-702.11224	22.35684	526.61676				-679.63202	156.05238	160.71864							-548.32880	212.08932	163.52303				-752.41632	142.48726	572.92035							-796.85358	183.60123	183.55013	-763.52820	226.57529	203.80026	-589.69342	181.96867	173.05833	-882.64691	296.28064	144.68781	-772.94165	250.79988	572.19080	-640.17053	273.35843	159.75250	-601.67969	274.17358	159.42456	-528.09949	303.97858	146.33151										-742.38757	78.89052	576.46783	-794.11304	32.56569	175.22992				-875.78070	-78.64841	140.93260													-723.34668	145.32727	221.17250													-517.95282	-73.07230	143.02869	
136	2.700				-762.22992	279.63992	739.40247										-757.47559	-21.92715	207.38007	-702.48682	22.27909	526.58954				-679.70038	156.04497	160.57922							-548.33722	212.00497	163.63881				-753.08130	142.83676	572.57605							-796.88409	183.44766	183.48724	-763.40039	226.71614	203.65279	-589.75568	181.90652	172.94109	-882.56165	296.02393	144.54869	-773.15979	250.81487	572.23724	-640.19989	273.32062	159.88628	-601.53424	274.03494	159.48180	-528.09247	303.90387	146.25179										-742.62720	79.08879	576.43475	-794.19287	32.49983	174.98317				-875.78070	-78.64841	140.93260													-723.46832	145.20290	221.03479													-518.00500	-72.82593	143.06212	
137	2.720				-762.66992	279.80347	739.32349										-757.66345	-21.81545	207.28471	-702.59930	22.37616	526.89502				-679.83789	156.32031	160.09035							-548.47345	212.03363	163.72658				-753.54230	142.64883	572.81873							-796.91046	183.51036	183.40163	-763.51691	226.50603	203.97255	-589.86200	181.94760	172.99335	-882.74536	296.04321	144.53596	-773.14172	250.72882	572.07617	-640.18671	273.44904	159.63753	-601.56354	274.15875	159.68961	-528.15802	303.95682	146.21460										-742.74670	79.02409	576.31976	-794.10382	32.56670	175.00598										-876.13379	-78.89445	141.38989							-723.60681	145.24115	220.87184													-517.97510	-72.85950	143.01108	
138	2.740				-763.14026	279.58987	739.15607										-757.52148	-22.11804	207.33202	-702.82489	22.41632	526.80206				-679.55255	155.96399	160.42000							-548.33722	212.00497	163.63881				-753.69806	142.53166	572.73309							-796.95856	183.45947	183.34500	-763.39648	226.75620	203.75522	-589.77539	181.93120	173.07367	-882.57648	296.07275	144.58041	-773.25543	250.74509	572.21558	-640.18671	273.44904	159.63753	-601.76245	274.08450	159.64819	-528.15143	303.76697	146.38100										-742.92841	78.90310	576.34680	-794.24890	32.66958	175.10150										-876.14905	-78.79788	141.54057							-723.60681	145.24115	220.87184													-517.94177	-72.92817	143.09164	
139	2.760				-763.24597	279.47504	738.98395										-757.91394	-22.20701	207.33026	-703.26300	22.71140	526.58197				-679.70038	156.04497	160.57922							-548.41809	212.09076	163.56422				-753.78680	142.35106	572.94147							-796.88959	183.44261	183.36685	-763.52820	226.57529	203.80026	-589.67365	181.96291	173.07045	-882.90430	296.10938	144.57892	-773.39008	250.80461	571.99152	-640.17053	273.35843	159.75250	-601.84271	274.16235	159.50140	-528.13043	304.06409	146.29504										-743.38318	78.75636	576.20941	-794.20404	32.61121	175.06360										-875.78070	-78.64841	140.93260							-723.60681	145.24115	220.87184													-517.99066	-73.04592	143.03880	
